<svg width="70" height="40" xmlns="http://www.w3.org/2000/svg"><path d="M55.246 28.661c0-.471.387-.847.877-.847s.877.376.877.847c0 .472-.387.848-.877.848s-.877-.376-.877-.848Zm1.62 0c0-.4-.342-.717-.743-.717-.4 0-.743.317-.743.717 0 .4.343.718.743.718.4 0 .743-.318.743-.718Zm-.327.459h-.16l-.287-.428h-.161v.428h-.134v-.928h.416c.172 0 .34.045.34.245 0 .183-.132.25-.302.255l.288.428Zm-.447-.559c.118 0 .326.022.326-.126 0-.095-.13-.113-.232-.113h-.255v.24h.16Zm-3.46-18.355h2.386v15.996c0 3.65-4.67 5.402-7.141 1.162-.179-.306-4.071-7.08-4.071-7.08v5.918c0 3.65-4.67 5.402-7.141 1.162-.179-.306-4.072-7.08-4.072-7.08v5.578c.003 2.533-1.489 3.906-3.808 3.904h-6.103c-5.347 0-9.682-4.379-9.682-9.78s4.335-9.78 9.682-9.78h3.137v2.415h-3.14c-4.02 0-7.29 3.304-7.29 7.365s3.27 7.365 7.29 7.365h6.045c.784 0 1.473-.694 1.473-1.486V13.84c0-.326.209-.5.388-.549.278-.076.567.09.773.443l4.026 7.01 3.39 5.904c.471.808 1.172.949 1.67.812.584-.16.976-.694.976-1.326V13.839c0-.27.15-.485.384-.55.274-.075.56.091.766.444a22967.271 22967.271 0 0 1 7.417 12.914c.37.635.881.858 1.325.858.122 0 .238-.017.345-.046.583-.161.975-.694.975-1.326V10.206Zm-36.447 9.78c0-3.617 2.914-6.56 6.495-6.56h3.139v2.416h-3.114c-2.266 0-4.103 1.855-4.103 4.144 0 2.29 1.837 4.145 4.103 4.145h3.666a.643.643 0 0 0 .643-.66v-9.7c0-3.65 4.67-5.403 7.141-1.163.179.307 4.071 7.08 4.071 7.08V13.77c0-3.65 4.67-5.402 7.14-1.162.18.307 4.072 7.08 4.072 7.08v-9.482h2.397v15.927c0 .326-.209.5-.388.549-.278.077-.567-.09-.773-.443l-3.715-6.467-3.702-6.447c-.47-.807-1.167-.948-1.663-.812-.58.16-.97.693-.971 1.326v12.294c0 .326-.209.5-.388.549-.278.077-.567-.09-.773-.443l-3.389-5.9-4.028-7.014c-.47-.808-1.171-.949-1.67-.812-.583.161-.975.694-.975 1.326v12.026c0 .315-.296.68-.676.68H22.68c-3.581 0-6.495-2.942-6.495-6.559Z" fill-rule="nonzero" fill="#B8242A"/></svg>