<svg width="70" height="40" xmlns="http://www.w3.org/2000/svg"><g fill-rule="nonzero" fill="none"><path fill="#183A52" d="M18.067 4.042h33.918v27.05H18.067z"/><path d="m50.554 20.803 1.149 2.358.225-.11-1.15-2.357-.224.11ZM18.214 7.911c9.245-3.266 17.974-1.297 24.123 3.44l.152-.198C36.278 6.367 27.462 4.379 18.13 7.675l.083.236Z" fill="#FFF"/><path fill="#B00" d="M18.067 31.76h33.918v4.203H18.067z"/><path d="m23.662 4.048-5.595 26.566v.46h.008l9.456-27.026h-3.868Zm7.46.016-12.99 27.042h.146v-.016l4.703-7.394v-2.164h1.363l4.995-7.846v-2.373h1.557l4.573-7.25h-4.346v.001Zm8.516 7.57c-2.48 0-4.492 1.973-4.492 4.408 0 2.435 2.011 4.41 4.492 4.41 2.48 0 4.49-1.975 4.49-4.41s-2.01-4.409-4.49-4.409Zm-10.02.018v8.706h2.554v-2.82h2.52v-2.35H32.2v-1.165h3.067l-.187-2.371h-5.462Zm13.318.015 2.507 4.196-2.6 4.475h2.751l1.244-2.14 1.285 2.156 2.828.003-2.714-4.532 2.42-4.144h-2.781l-1.054 1.77-1.09-1.784h-2.796Zm5.348 9.907a4.983 4.983 0 0 0-.561.036c-1.417.17-2.09.974-2.34 2.044-.184 1.37.221 1.779.631 2.146.515.46 1.24.679 2.03.902.487.137 1.052.28.975.822-.036.25-.197.469-.837.434-.887.006-1.06-.481-1.262-.948l-1.892.422c.25 1.195.994 1.972 1.926 2.226 1.404.384 2.305.157 3.04-.296.967-.595 1.47-1.826 1.064-3.142-.17-.548-.584-.977-1.222-1.213-.394-.145-.781-.335-1.735-.531-.393-.081-.7-.285-.665-.571.022-.185.157-.59.826-.582.538.006.768.453 1.009.81l1.766-.56c-.348-1.012-1.05-2.009-2.753-2Zm-8.232.23-.93 4.693-.986-4.68h-2.052l1.869 7.934h1.88l.918-4.51.94 4.544h1.835l1.881-7.969h-1.663l-.986 4.612-.975-4.623h-1.731Zm-9.52.024v7.934h5.229v-1.815h-3.234v-1.382h2.603v-1.712h-2.592v-1.176h3.154v-1.85h-5.16Zm-2.496.015v4.007l-2.409-3.997h-2.32v7.916h2.036l.01-4.543 2.724 4.543h1.957v-7.926h-1.998Zm22.11 10.735v2.763h.995v-2.763h-.994Zm-25.894.017v2.78h.999v-1.299c.005-.12.097-.29.475-.318.279-.033.485.147.485.294v1.323h.993v-1.472c-.03-.363-.228-.633-.964-.652-.337-.008-.664.04-.96.324h-.024v-.98h-1.004Zm-3.705.638c-.871.02-1.325.301-1.502.757-.154.418-.104.805.343 1.133.497.318.917.292 1.344.293.934-.074 1.151-.419 1.275-.798h-.98c-.105.165-.212.33-.542.293-.361-.04-.519-.307-.494-.593.049-.551.34-.575.535-.578.344-.02.402.133.48.284h1.028c-.15-.443-.502-.782-1.487-.791Zm26.049.021c-1.14.003-1.544.555-1.535 1.092v.006c.016.57.333 1.01 1.473 1.059.763.032 1.307-.164 1.611-.676h-.966c-.12.11-.182.226-.556.212-.373-.014-.547-.199-.514-.457h2.077c.04-.83-.514-1.238-1.59-1.236Zm-4.761.007c-.314.002-.61.047-.902.307-.025.015-.058.038-.058.007v-.263h-.98v2.033h1.007V34.12c0-.214.227-.354.5-.365.374-.015.464.205.464.324v1.273h.976v-1.49c0-.302-.24-.606-1.007-.601Zm-5.213.002c-.314.002-.61.047-.901.307-.025.016-.058.039-.058.007v-.262h-.98v2.033h1.007v-1.225c0-.214.227-.354.5-.365.374-.015.463.205.463.324v1.273h.977v-1.491c0-.3-.24-.606-1.008-.6Zm-5.687.004c-.632.034-1.304.013-1.498.656h.916c.086-.154.242-.222.47-.212.15.006.343.002.422.096.093.112.053.251-.257.28-1.272.12-1.657.309-1.648.7.006.273.138.507.62.608.303.063.866.045 1.3-.241.027-.005.037-.001.053 0-.01.108.015.166.058.197h1.018v-.048c-.067-.047-.136-.09-.165-.212v-1.1c-.06-.566-.572-.735-1.29-.724Z" fill="#FFF"/><path d="M46.652 33.69c-.36.007-.548.163-.597.443h1.152c.016-.29-.187-.453-.555-.443Zm-15.423.697c-.28.117-.487.118-.727.154-.153.022-.232.158-.223.249.008.078.124.177.226.197.317.063.568-.011.744-.218.056-.066.051-.184.024-.379l-.044-.003Z" fill="#B00"/><path d="m38.848 13.968-.007 3.867c.064.474.42.755.741.758.623.006.723-.398.803-.738v-3.77c-.056-.302-.22-.714-.74-.745-.29-.017-.71.257-.797.628Z" fill="#183A52"/></g></svg>